<mxfile host="app.diagrams.net" modified="2023-11-25T02:34:33.931Z" agent="Mozilla/5.0 (Windows NT 10.0; Win64; x64) AppleWebKit/537.36 (KHTML, like Gecko) Chrome/119.0.0.0 Safari/537.36" etag="kPGKY0lMD6-MS2gJLX11" version="22.1.4" type="github">
  <diagram id="R2lEEEUBdFMjLlhIrx00" name="Page-1">
    <mxGraphModel dx="2573" dy="1823" grid="1" gridSize="10" guides="1" tooltips="1" connect="1" arrows="1" fold="1" page="1" pageScale="1" pageWidth="850" pageHeight="1100" math="0" shadow="0" extFonts="Permanent Marker^https://fonts.googleapis.com/css?family=Permanent+Marker">
      <root>
        <mxCell id="0" />
        <mxCell id="1" parent="0" />
        <mxCell id="Fle0Xo0IbeSv7SWmubEE-23" value="" style="shape=tableRow;horizontal=0;startSize=0;swimlaneHead=0;swimlaneBody=0;strokeColor=inherit;top=0;left=0;bottom=0;right=0;collapsible=0;dropTarget=0;fillColor=none;points=[[0,0.5],[1,0.5]];portConstraint=eastwest;" vertex="1" parent="1">
          <mxGeometry x="370" y="220" width="190" height="40" as="geometry" />
        </mxCell>
        <mxCell id="Fle0Xo0IbeSv7SWmubEE-26" value="" style="shape=tableRow;horizontal=0;startSize=0;swimlaneHead=0;swimlaneBody=0;strokeColor=inherit;top=0;left=0;bottom=0;right=0;collapsible=0;dropTarget=0;fillColor=none;points=[[0,0.5],[1,0.5]];portConstraint=eastwest;" vertex="1" parent="1">
          <mxGeometry x="370" y="260" width="190" height="40" as="geometry" />
        </mxCell>
        <mxCell id="Fle0Xo0IbeSv7SWmubEE-29" value="" style="shape=tableRow;horizontal=0;startSize=0;swimlaneHead=0;swimlaneBody=0;strokeColor=inherit;top=0;left=0;bottom=0;right=0;collapsible=0;dropTarget=0;fillColor=none;points=[[0,0.5],[1,0.5]];portConstraint=eastwest;" vertex="1" parent="1">
          <mxGeometry x="370" y="300" width="190" height="40" as="geometry" />
        </mxCell>
        <mxCell id="Fle0Xo0IbeSv7SWmubEE-149" value="" style="shape=table;startSize=0;container=1;collapsible=0;childLayout=tableLayout;" vertex="1" parent="1">
          <mxGeometry x="160" y="210" width="310" height="210" as="geometry" />
        </mxCell>
        <mxCell id="Fle0Xo0IbeSv7SWmubEE-150" value="" style="shape=tableRow;horizontal=0;startSize=0;swimlaneHead=0;swimlaneBody=0;strokeColor=inherit;top=0;left=0;bottom=0;right=0;collapsible=0;dropTarget=0;fillColor=none;points=[[0,0.5],[1,0.5]];portConstraint=eastwest;" vertex="1" parent="Fle0Xo0IbeSv7SWmubEE-149">
          <mxGeometry width="310" height="50" as="geometry" />
        </mxCell>
        <mxCell id="Fle0Xo0IbeSv7SWmubEE-151" value="ID" style="shape=partialRectangle;html=1;whiteSpace=wrap;connectable=0;strokeColor=inherit;overflow=hidden;fillColor=none;top=0;left=0;bottom=0;right=0;pointerEvents=1;" vertex="1" parent="Fle0Xo0IbeSv7SWmubEE-150">
          <mxGeometry width="62" height="50" as="geometry">
            <mxRectangle width="62" height="50" as="alternateBounds" />
          </mxGeometry>
        </mxCell>
        <mxCell id="Fle0Xo0IbeSv7SWmubEE-152" value="RESEÃ‘A" style="shape=partialRectangle;html=1;whiteSpace=wrap;connectable=0;strokeColor=inherit;overflow=hidden;fillColor=none;top=0;left=0;bottom=0;right=0;pointerEvents=1;" vertex="1" parent="Fle0Xo0IbeSv7SWmubEE-150">
          <mxGeometry x="62" width="248" height="50" as="geometry">
            <mxRectangle width="248" height="50" as="alternateBounds" />
          </mxGeometry>
        </mxCell>
        <mxCell id="Fle0Xo0IbeSv7SWmubEE-153" value="" style="shape=tableRow;horizontal=0;startSize=0;swimlaneHead=0;swimlaneBody=0;strokeColor=inherit;top=0;left=0;bottom=0;right=0;collapsible=0;dropTarget=0;fillColor=none;points=[[0,0.5],[1,0.5]];portConstraint=eastwest;" vertex="1" parent="Fle0Xo0IbeSv7SWmubEE-149">
          <mxGeometry y="50" width="310" height="40" as="geometry" />
        </mxCell>
        <mxCell id="Fle0Xo0IbeSv7SWmubEE-154" value="1" style="shape=partialRectangle;html=1;whiteSpace=wrap;connectable=0;strokeColor=inherit;overflow=hidden;fillColor=none;top=0;left=0;bottom=0;right=0;pointerEvents=1;" vertex="1" parent="Fle0Xo0IbeSv7SWmubEE-153">
          <mxGeometry width="62" height="40" as="geometry">
            <mxRectangle width="62" height="40" as="alternateBounds" />
          </mxGeometry>
        </mxCell>
        <mxCell id="Fle0Xo0IbeSv7SWmubEE-155" value="CLIENTE_ID = 1" style="shape=partialRectangle;html=1;whiteSpace=wrap;connectable=0;strokeColor=inherit;overflow=hidden;fillColor=none;top=0;left=0;bottom=0;right=0;pointerEvents=1;" vertex="1" parent="Fle0Xo0IbeSv7SWmubEE-153">
          <mxGeometry x="62" width="248" height="40" as="geometry">
            <mxRectangle width="248" height="40" as="alternateBounds" />
          </mxGeometry>
        </mxCell>
        <mxCell id="Fle0Xo0IbeSv7SWmubEE-156" value="" style="shape=tableRow;horizontal=0;startSize=0;swimlaneHead=0;swimlaneBody=0;strokeColor=inherit;top=0;left=0;bottom=0;right=0;collapsible=0;dropTarget=0;fillColor=none;points=[[0,0.5],[1,0.5]];portConstraint=eastwest;" vertex="1" parent="Fle0Xo0IbeSv7SWmubEE-149">
          <mxGeometry y="90" width="310" height="40" as="geometry" />
        </mxCell>
        <mxCell id="Fle0Xo0IbeSv7SWmubEE-157" value="2" style="shape=partialRectangle;html=1;whiteSpace=wrap;connectable=0;strokeColor=inherit;overflow=hidden;fillColor=none;top=0;left=0;bottom=0;right=0;pointerEvents=1;" vertex="1" parent="Fle0Xo0IbeSv7SWmubEE-156">
          <mxGeometry width="62" height="40" as="geometry">
            <mxRectangle width="62" height="40" as="alternateBounds" />
          </mxGeometry>
        </mxCell>
        <mxCell id="Fle0Xo0IbeSv7SWmubEE-158" value="PRODUCTOS_ID = 1" style="shape=partialRectangle;html=1;whiteSpace=wrap;connectable=0;strokeColor=inherit;overflow=hidden;fillColor=none;top=0;left=0;bottom=0;right=0;pointerEvents=1;" vertex="1" parent="Fle0Xo0IbeSv7SWmubEE-156">
          <mxGeometry x="62" width="248" height="40" as="geometry">
            <mxRectangle width="248" height="40" as="alternateBounds" />
          </mxGeometry>
        </mxCell>
        <mxCell id="Fle0Xo0IbeSv7SWmubEE-159" value="" style="shape=tableRow;horizontal=0;startSize=0;swimlaneHead=0;swimlaneBody=0;strokeColor=inherit;top=0;left=0;bottom=0;right=0;collapsible=0;dropTarget=0;fillColor=none;points=[[0,0.5],[1,0.5]];portConstraint=eastwest;" vertex="1" parent="Fle0Xo0IbeSv7SWmubEE-149">
          <mxGeometry y="130" width="310" height="40" as="geometry" />
        </mxCell>
        <mxCell id="Fle0Xo0IbeSv7SWmubEE-160" value="3" style="shape=partialRectangle;html=1;whiteSpace=wrap;connectable=0;strokeColor=inherit;overflow=hidden;fillColor=none;top=0;left=0;bottom=0;right=0;pointerEvents=1;" vertex="1" parent="Fle0Xo0IbeSv7SWmubEE-159">
          <mxGeometry width="62" height="40" as="geometry">
            <mxRectangle width="62" height="40" as="alternateBounds" />
          </mxGeometry>
        </mxCell>
        <mxCell id="Fle0Xo0IbeSv7SWmubEE-161" value="PUNTUACION = 10/10" style="shape=partialRectangle;html=1;whiteSpace=wrap;connectable=0;strokeColor=inherit;overflow=hidden;fillColor=none;top=0;left=0;bottom=0;right=0;pointerEvents=1;" vertex="1" parent="Fle0Xo0IbeSv7SWmubEE-159">
          <mxGeometry x="62" width="248" height="40" as="geometry">
            <mxRectangle width="248" height="40" as="alternateBounds" />
          </mxGeometry>
        </mxCell>
        <mxCell id="Fle0Xo0IbeSv7SWmubEE-162" value="" style="shape=tableRow;horizontal=0;startSize=0;swimlaneHead=0;swimlaneBody=0;strokeColor=inherit;top=0;left=0;bottom=0;right=0;collapsible=0;dropTarget=0;fillColor=none;points=[[0,0.5],[1,0.5]];portConstraint=eastwest;" vertex="1" parent="Fle0Xo0IbeSv7SWmubEE-149">
          <mxGeometry y="170" width="310" height="40" as="geometry" />
        </mxCell>
        <mxCell id="Fle0Xo0IbeSv7SWmubEE-163" value="4" style="shape=partialRectangle;html=1;whiteSpace=wrap;connectable=0;strokeColor=inherit;overflow=hidden;fillColor=none;top=0;left=0;bottom=0;right=0;pointerEvents=1;" vertex="1" parent="Fle0Xo0IbeSv7SWmubEE-162">
          <mxGeometry width="62" height="40" as="geometry">
            <mxRectangle width="62" height="40" as="alternateBounds" />
          </mxGeometry>
        </mxCell>
        <mxCell id="Fle0Xo0IbeSv7SWmubEE-164" value="COMENTARIO = ! GRACIAS POR SU COMPRA VUELVA PRONTO !" style="shape=partialRectangle;html=1;whiteSpace=wrap;connectable=0;strokeColor=inherit;overflow=hidden;fillColor=none;top=0;left=0;bottom=0;right=0;pointerEvents=1;" vertex="1" parent="Fle0Xo0IbeSv7SWmubEE-162">
          <mxGeometry x="62" width="248" height="40" as="geometry">
            <mxRectangle width="248" height="40" as="alternateBounds" />
          </mxGeometry>
        </mxCell>
        <mxCell id="Fle0Xo0IbeSv7SWmubEE-207" value="" style="edgeStyle=entityRelationEdgeStyle;fontSize=12;html=1;endArrow=ERoneToMany;rounded=0;entryX=0;entryY=0.5;entryDx=0;entryDy=0;exitX=1;exitY=0.5;exitDx=0;exitDy=0;" edge="1" parent="1" source="Fle0Xo0IbeSv7SWmubEE-189" target="Fle0Xo0IbeSv7SWmubEE-146">
          <mxGeometry width="100" height="100" relative="1" as="geometry">
            <mxPoint x="-90" y="160" as="sourcePoint" />
            <mxPoint x="290" y="260" as="targetPoint" />
            <Array as="points">
              <mxPoint x="-100" y="110" />
            </Array>
          </mxGeometry>
        </mxCell>
        <mxCell id="Fle0Xo0IbeSv7SWmubEE-130" value="" style="shape=table;startSize=0;container=1;collapsible=0;childLayout=tableLayout;" vertex="1" parent="1">
          <mxGeometry x="250" y="-230" width="220" height="280" as="geometry" />
        </mxCell>
        <mxCell id="Fle0Xo0IbeSv7SWmubEE-131" value="" style="shape=tableRow;horizontal=0;startSize=0;swimlaneHead=0;swimlaneBody=0;strokeColor=inherit;top=0;left=0;bottom=0;right=0;collapsible=0;dropTarget=0;fillColor=none;points=[[0,0.5],[1,0.5]];portConstraint=eastwest;" vertex="1" parent="Fle0Xo0IbeSv7SWmubEE-130">
          <mxGeometry width="220" height="40" as="geometry" />
        </mxCell>
        <mxCell id="Fle0Xo0IbeSv7SWmubEE-132" value="ID" style="shape=partialRectangle;html=1;whiteSpace=wrap;connectable=0;strokeColor=inherit;overflow=hidden;fillColor=none;top=0;left=0;bottom=0;right=0;pointerEvents=1;" vertex="1" parent="Fle0Xo0IbeSv7SWmubEE-131">
          <mxGeometry width="40" height="40" as="geometry">
            <mxRectangle width="40" height="40" as="alternateBounds" />
          </mxGeometry>
        </mxCell>
        <mxCell id="Fle0Xo0IbeSv7SWmubEE-133" value="PRODUCTO" style="shape=partialRectangle;html=1;whiteSpace=wrap;connectable=0;strokeColor=inherit;overflow=hidden;fillColor=none;top=0;left=0;bottom=0;right=0;pointerEvents=1;" vertex="1" parent="Fle0Xo0IbeSv7SWmubEE-131">
          <mxGeometry x="40" width="180" height="40" as="geometry">
            <mxRectangle width="180" height="40" as="alternateBounds" />
          </mxGeometry>
        </mxCell>
        <mxCell id="Fle0Xo0IbeSv7SWmubEE-203" value="" style="shape=tableRow;horizontal=0;startSize=0;swimlaneHead=0;swimlaneBody=0;strokeColor=inherit;top=0;left=0;bottom=0;right=0;collapsible=0;dropTarget=0;fillColor=none;points=[[0,0.5],[1,0.5]];portConstraint=eastwest;" vertex="1" parent="Fle0Xo0IbeSv7SWmubEE-130">
          <mxGeometry y="40" width="220" height="30" as="geometry" />
        </mxCell>
        <mxCell id="Fle0Xo0IbeSv7SWmubEE-204" value="1" style="shape=partialRectangle;html=1;whiteSpace=wrap;connectable=0;strokeColor=inherit;overflow=hidden;fillColor=none;top=0;left=0;bottom=0;right=0;pointerEvents=1;" vertex="1" parent="Fle0Xo0IbeSv7SWmubEE-203">
          <mxGeometry width="40" height="30" as="geometry">
            <mxRectangle width="40" height="30" as="alternateBounds" />
          </mxGeometry>
        </mxCell>
        <mxCell id="Fle0Xo0IbeSv7SWmubEE-205" value="NOMBRE = manila guacamalla&amp;nbsp;" style="shape=partialRectangle;html=1;whiteSpace=wrap;connectable=0;strokeColor=inherit;overflow=hidden;fillColor=none;top=0;left=0;bottom=0;right=0;pointerEvents=1;" vertex="1" parent="Fle0Xo0IbeSv7SWmubEE-203">
          <mxGeometry x="40" width="180" height="30" as="geometry">
            <mxRectangle width="180" height="30" as="alternateBounds" />
          </mxGeometry>
        </mxCell>
        <mxCell id="Fle0Xo0IbeSv7SWmubEE-134" value="" style="shape=tableRow;horizontal=0;startSize=0;swimlaneHead=0;swimlaneBody=0;strokeColor=inherit;top=0;left=0;bottom=0;right=0;collapsible=0;dropTarget=0;fillColor=none;points=[[0,0.5],[1,0.5]];portConstraint=eastwest;" vertex="1" parent="Fle0Xo0IbeSv7SWmubEE-130">
          <mxGeometry y="70" width="220" height="40" as="geometry" />
        </mxCell>
        <mxCell id="Fle0Xo0IbeSv7SWmubEE-135" value="1" style="shape=partialRectangle;html=1;whiteSpace=wrap;connectable=0;strokeColor=inherit;overflow=hidden;fillColor=none;top=0;left=0;bottom=0;right=0;pointerEvents=1;" vertex="1" parent="Fle0Xo0IbeSv7SWmubEE-134">
          <mxGeometry width="40" height="40" as="geometry">
            <mxRectangle width="40" height="40" as="alternateBounds" />
          </mxGeometry>
        </mxCell>
        <mxCell id="Fle0Xo0IbeSv7SWmubEE-136" value="NOMBRE = manila guacamalla&amp;nbsp;" style="shape=partialRectangle;html=1;whiteSpace=wrap;connectable=0;strokeColor=inherit;overflow=hidden;fillColor=none;top=0;left=0;bottom=0;right=0;pointerEvents=1;" vertex="1" parent="Fle0Xo0IbeSv7SWmubEE-134">
          <mxGeometry x="40" width="180" height="40" as="geometry">
            <mxRectangle width="180" height="40" as="alternateBounds" />
          </mxGeometry>
        </mxCell>
        <mxCell id="Fle0Xo0IbeSv7SWmubEE-137" value="" style="shape=tableRow;horizontal=0;startSize=0;swimlaneHead=0;swimlaneBody=0;strokeColor=inherit;top=0;left=0;bottom=0;right=0;collapsible=0;dropTarget=0;fillColor=none;points=[[0,0.5],[1,0.5]];portConstraint=eastwest;" vertex="1" parent="Fle0Xo0IbeSv7SWmubEE-130">
          <mxGeometry y="110" width="220" height="40" as="geometry" />
        </mxCell>
        <mxCell id="Fle0Xo0IbeSv7SWmubEE-138" value="2" style="shape=partialRectangle;html=1;whiteSpace=wrap;connectable=0;strokeColor=inherit;overflow=hidden;fillColor=none;top=0;left=0;bottom=0;right=0;pointerEvents=1;" vertex="1" parent="Fle0Xo0IbeSv7SWmubEE-137">
          <mxGeometry width="40" height="40" as="geometry">
            <mxRectangle width="40" height="40" as="alternateBounds" />
          </mxGeometry>
        </mxCell>
        <mxCell id="Fle0Xo0IbeSv7SWmubEE-139" value="PRECIO = $ 20.000" style="shape=partialRectangle;html=1;whiteSpace=wrap;connectable=0;strokeColor=inherit;overflow=hidden;fillColor=none;top=0;left=0;bottom=0;right=0;pointerEvents=1;" vertex="1" parent="Fle0Xo0IbeSv7SWmubEE-137">
          <mxGeometry x="40" width="180" height="40" as="geometry">
            <mxRectangle width="180" height="40" as="alternateBounds" />
          </mxGeometry>
        </mxCell>
        <mxCell id="Fle0Xo0IbeSv7SWmubEE-140" value="" style="shape=tableRow;horizontal=0;startSize=0;swimlaneHead=0;swimlaneBody=0;strokeColor=inherit;top=0;left=0;bottom=0;right=0;collapsible=0;dropTarget=0;fillColor=none;points=[[0,0.5],[1,0.5]];portConstraint=eastwest;" vertex="1" parent="Fle0Xo0IbeSv7SWmubEE-130">
          <mxGeometry y="150" width="220" height="50" as="geometry" />
        </mxCell>
        <mxCell id="Fle0Xo0IbeSv7SWmubEE-141" value="3" style="shape=partialRectangle;html=1;whiteSpace=wrap;connectable=0;strokeColor=inherit;overflow=hidden;fillColor=none;top=0;left=0;bottom=0;right=0;pointerEvents=1;" vertex="1" parent="Fle0Xo0IbeSv7SWmubEE-140">
          <mxGeometry width="40" height="50" as="geometry">
            <mxRectangle width="40" height="50" as="alternateBounds" />
          </mxGeometry>
        </mxCell>
        <mxCell id="Fle0Xo0IbeSv7SWmubEE-142" value="DESCRIPCION = hecha en mostacilla , nailon , unisex" style="shape=partialRectangle;html=1;whiteSpace=wrap;connectable=0;strokeColor=inherit;overflow=hidden;fillColor=none;top=0;left=0;bottom=0;right=0;pointerEvents=1;" vertex="1" parent="Fle0Xo0IbeSv7SWmubEE-140">
          <mxGeometry x="40" width="180" height="50" as="geometry">
            <mxRectangle width="180" height="50" as="alternateBounds" />
          </mxGeometry>
        </mxCell>
        <mxCell id="Fle0Xo0IbeSv7SWmubEE-143" value="" style="shape=tableRow;horizontal=0;startSize=0;swimlaneHead=0;swimlaneBody=0;strokeColor=inherit;top=0;left=0;bottom=0;right=0;collapsible=0;dropTarget=0;fillColor=none;points=[[0,0.5],[1,0.5]];portConstraint=eastwest;" vertex="1" parent="Fle0Xo0IbeSv7SWmubEE-130">
          <mxGeometry y="200" width="220" height="40" as="geometry" />
        </mxCell>
        <mxCell id="Fle0Xo0IbeSv7SWmubEE-144" value="4" style="shape=partialRectangle;html=1;whiteSpace=wrap;connectable=0;strokeColor=inherit;overflow=hidden;fillColor=none;top=0;left=0;bottom=0;right=0;pointerEvents=1;" vertex="1" parent="Fle0Xo0IbeSv7SWmubEE-143">
          <mxGeometry width="40" height="40" as="geometry">
            <mxRectangle width="40" height="40" as="alternateBounds" />
          </mxGeometry>
        </mxCell>
        <mxCell id="Fle0Xo0IbeSv7SWmubEE-145" value="CATEGORIA_ID =1" style="shape=partialRectangle;html=1;whiteSpace=wrap;connectable=0;strokeColor=inherit;overflow=hidden;fillColor=none;top=0;left=0;bottom=0;right=0;pointerEvents=1;" vertex="1" parent="Fle0Xo0IbeSv7SWmubEE-143">
          <mxGeometry x="40" width="180" height="40" as="geometry">
            <mxRectangle width="180" height="40" as="alternateBounds" />
          </mxGeometry>
        </mxCell>
        <mxCell id="Fle0Xo0IbeSv7SWmubEE-146" value="" style="shape=tableRow;horizontal=0;startSize=0;swimlaneHead=0;swimlaneBody=0;strokeColor=inherit;top=0;left=0;bottom=0;right=0;collapsible=0;dropTarget=0;fillColor=none;points=[[0,0.5],[1,0.5]];portConstraint=eastwest;" vertex="1" parent="Fle0Xo0IbeSv7SWmubEE-130">
          <mxGeometry y="240" width="220" height="40" as="geometry" />
        </mxCell>
        <mxCell id="Fle0Xo0IbeSv7SWmubEE-147" value="5" style="shape=partialRectangle;html=1;whiteSpace=wrap;connectable=0;strokeColor=inherit;overflow=hidden;fillColor=none;top=0;left=0;bottom=0;right=0;pointerEvents=1;" vertex="1" parent="Fle0Xo0IbeSv7SWmubEE-146">
          <mxGeometry width="40" height="40" as="geometry">
            <mxRectangle width="40" height="40" as="alternateBounds" />
          </mxGeometry>
        </mxCell>
        <mxCell id="Fle0Xo0IbeSv7SWmubEE-148" value="PROVEDOR_ID = 1" style="shape=partialRectangle;html=1;whiteSpace=wrap;connectable=0;strokeColor=inherit;overflow=hidden;fillColor=none;top=0;left=0;bottom=0;right=0;pointerEvents=1;" vertex="1" parent="Fle0Xo0IbeSv7SWmubEE-146">
          <mxGeometry x="40" width="180" height="40" as="geometry">
            <mxRectangle width="180" height="40" as="alternateBounds" />
          </mxGeometry>
        </mxCell>
        <mxCell id="Fle0Xo0IbeSv7SWmubEE-168" value="" style="shape=table;startSize=0;container=1;collapsible=0;childLayout=tableLayout;" vertex="1" parent="1">
          <mxGeometry x="-370" y="380" width="250" height="140" as="geometry" />
        </mxCell>
        <mxCell id="Fle0Xo0IbeSv7SWmubEE-169" value="" style="shape=tableRow;horizontal=0;startSize=0;swimlaneHead=0;swimlaneBody=0;strokeColor=inherit;top=0;left=0;bottom=0;right=0;collapsible=0;dropTarget=0;fillColor=none;points=[[0,0.5],[1,0.5]];portConstraint=eastwest;" vertex="1" parent="Fle0Xo0IbeSv7SWmubEE-168">
          <mxGeometry width="250" height="60" as="geometry" />
        </mxCell>
        <mxCell id="Fle0Xo0IbeSv7SWmubEE-170" value="ID" style="shape=partialRectangle;html=1;whiteSpace=wrap;connectable=0;strokeColor=inherit;overflow=hidden;fillColor=none;top=0;left=0;bottom=0;right=0;pointerEvents=1;" vertex="1" parent="Fle0Xo0IbeSv7SWmubEE-169">
          <mxGeometry width="40" height="60" as="geometry">
            <mxRectangle width="40" height="60" as="alternateBounds" />
          </mxGeometry>
        </mxCell>
        <mxCell id="Fle0Xo0IbeSv7SWmubEE-171" value="ORDEN" style="shape=partialRectangle;html=1;whiteSpace=wrap;connectable=0;strokeColor=inherit;overflow=hidden;fillColor=none;top=0;left=0;bottom=0;right=0;pointerEvents=1;" vertex="1" parent="Fle0Xo0IbeSv7SWmubEE-169">
          <mxGeometry x="40" width="210" height="60" as="geometry">
            <mxRectangle width="210" height="60" as="alternateBounds" />
          </mxGeometry>
        </mxCell>
        <mxCell id="Fle0Xo0IbeSv7SWmubEE-172" value="" style="shape=tableRow;horizontal=0;startSize=0;swimlaneHead=0;swimlaneBody=0;strokeColor=inherit;top=0;left=0;bottom=0;right=0;collapsible=0;dropTarget=0;fillColor=none;points=[[0,0.5],[1,0.5]];portConstraint=eastwest;" vertex="1" parent="Fle0Xo0IbeSv7SWmubEE-168">
          <mxGeometry y="60" width="250" height="40" as="geometry" />
        </mxCell>
        <mxCell id="Fle0Xo0IbeSv7SWmubEE-173" value="1" style="shape=partialRectangle;html=1;whiteSpace=wrap;connectable=0;strokeColor=inherit;overflow=hidden;fillColor=none;top=0;left=0;bottom=0;right=0;pointerEvents=1;" vertex="1" parent="Fle0Xo0IbeSv7SWmubEE-172">
          <mxGeometry width="40" height="40" as="geometry">
            <mxRectangle width="40" height="40" as="alternateBounds" />
          </mxGeometry>
        </mxCell>
        <mxCell id="Fle0Xo0IbeSv7SWmubEE-174" value="FECHA = 21-11-2023" style="shape=partialRectangle;html=1;whiteSpace=wrap;connectable=0;strokeColor=inherit;overflow=hidden;fillColor=none;top=0;left=0;bottom=0;right=0;pointerEvents=1;" vertex="1" parent="Fle0Xo0IbeSv7SWmubEE-172">
          <mxGeometry x="40" width="210" height="40" as="geometry">
            <mxRectangle width="210" height="40" as="alternateBounds" />
          </mxGeometry>
        </mxCell>
        <mxCell id="Fle0Xo0IbeSv7SWmubEE-175" value="" style="shape=tableRow;horizontal=0;startSize=0;swimlaneHead=0;swimlaneBody=0;strokeColor=inherit;top=0;left=0;bottom=0;right=0;collapsible=0;dropTarget=0;fillColor=none;points=[[0,0.5],[1,0.5]];portConstraint=eastwest;" vertex="1" parent="Fle0Xo0IbeSv7SWmubEE-168">
          <mxGeometry y="100" width="250" height="40" as="geometry" />
        </mxCell>
        <mxCell id="Fle0Xo0IbeSv7SWmubEE-176" value="2" style="shape=partialRectangle;html=1;whiteSpace=wrap;connectable=0;strokeColor=inherit;overflow=hidden;fillColor=none;top=0;left=0;bottom=0;right=0;pointerEvents=1;" vertex="1" parent="Fle0Xo0IbeSv7SWmubEE-175">
          <mxGeometry width="40" height="40" as="geometry">
            <mxRectangle width="40" height="40" as="alternateBounds" />
          </mxGeometry>
        </mxCell>
        <mxCell id="Fle0Xo0IbeSv7SWmubEE-177" value="CLIENTE_ID = 1" style="shape=partialRectangle;html=1;whiteSpace=wrap;connectable=0;strokeColor=inherit;overflow=hidden;fillColor=none;top=0;left=0;bottom=0;right=0;pointerEvents=1;" vertex="1" parent="Fle0Xo0IbeSv7SWmubEE-175">
          <mxGeometry x="40" width="210" height="40" as="geometry">
            <mxRectangle width="210" height="40" as="alternateBounds" />
          </mxGeometry>
        </mxCell>
        <mxCell id="Fle0Xo0IbeSv7SWmubEE-178" value="" style="shape=table;startSize=0;container=1;collapsible=0;childLayout=tableLayout;" vertex="1" parent="1">
          <mxGeometry x="-80" y="-230" width="240" height="60" as="geometry" />
        </mxCell>
        <mxCell id="Fle0Xo0IbeSv7SWmubEE-179" value="" style="shape=tableRow;horizontal=0;startSize=0;swimlaneHead=0;swimlaneBody=0;strokeColor=inherit;top=0;left=0;bottom=0;right=0;collapsible=0;dropTarget=0;fillColor=none;points=[[0,0.5],[1,0.5]];portConstraint=eastwest;" vertex="1" parent="Fle0Xo0IbeSv7SWmubEE-178">
          <mxGeometry width="240" height="20" as="geometry" />
        </mxCell>
        <mxCell id="Fle0Xo0IbeSv7SWmubEE-180" value="ID" style="shape=partialRectangle;html=1;whiteSpace=wrap;connectable=0;strokeColor=inherit;overflow=hidden;fillColor=none;top=0;left=0;bottom=0;right=0;pointerEvents=1;" vertex="1" parent="Fle0Xo0IbeSv7SWmubEE-179">
          <mxGeometry width="40" height="20" as="geometry">
            <mxRectangle width="40" height="20" as="alternateBounds" />
          </mxGeometry>
        </mxCell>
        <mxCell id="Fle0Xo0IbeSv7SWmubEE-181" value="CATEGORIA" style="shape=partialRectangle;html=1;whiteSpace=wrap;connectable=0;strokeColor=inherit;overflow=hidden;fillColor=none;top=0;left=0;bottom=0;right=0;pointerEvents=1;" vertex="1" parent="Fle0Xo0IbeSv7SWmubEE-179">
          <mxGeometry x="40" width="200" height="20" as="geometry">
            <mxRectangle width="200" height="20" as="alternateBounds" />
          </mxGeometry>
        </mxCell>
        <mxCell id="Fle0Xo0IbeSv7SWmubEE-182" value="" style="shape=tableRow;horizontal=0;startSize=0;swimlaneHead=0;swimlaneBody=0;strokeColor=inherit;top=0;left=0;bottom=0;right=0;collapsible=0;dropTarget=0;fillColor=none;points=[[0,0.5],[1,0.5]];portConstraint=eastwest;" vertex="1" parent="Fle0Xo0IbeSv7SWmubEE-178">
          <mxGeometry y="20" width="240" height="40" as="geometry" />
        </mxCell>
        <mxCell id="Fle0Xo0IbeSv7SWmubEE-183" value="1" style="shape=partialRectangle;html=1;whiteSpace=wrap;connectable=0;strokeColor=inherit;overflow=hidden;fillColor=none;top=0;left=0;bottom=0;right=0;pointerEvents=1;" vertex="1" parent="Fle0Xo0IbeSv7SWmubEE-182">
          <mxGeometry width="40" height="40" as="geometry">
            <mxRectangle width="40" height="40" as="alternateBounds" />
          </mxGeometry>
        </mxCell>
        <mxCell id="Fle0Xo0IbeSv7SWmubEE-184" value="NOMBRE = accesorios&amp;nbsp;" style="shape=partialRectangle;html=1;whiteSpace=wrap;connectable=0;strokeColor=inherit;overflow=hidden;fillColor=none;top=0;left=0;bottom=0;right=0;pointerEvents=1;" vertex="1" parent="Fle0Xo0IbeSv7SWmubEE-182">
          <mxGeometry x="40" width="200" height="40" as="geometry">
            <mxRectangle width="200" height="40" as="alternateBounds" />
          </mxGeometry>
        </mxCell>
        <mxCell id="Fle0Xo0IbeSv7SWmubEE-222" style="edgeStyle=orthogonalEdgeStyle;rounded=0;orthogonalLoop=1;jettySize=auto;html=1;exitX=1;exitY=0.5;exitDx=0;exitDy=0;" edge="1" parent="Fle0Xo0IbeSv7SWmubEE-178" source="Fle0Xo0IbeSv7SWmubEE-182" target="Fle0Xo0IbeSv7SWmubEE-182">
          <mxGeometry relative="1" as="geometry" />
        </mxCell>
        <mxCell id="Fle0Xo0IbeSv7SWmubEE-185" value="" style="shape=table;startSize=0;container=1;collapsible=0;childLayout=tableLayout;" vertex="1" parent="1">
          <mxGeometry x="-450" y="100" width="260" height="160" as="geometry" />
        </mxCell>
        <mxCell id="Fle0Xo0IbeSv7SWmubEE-186" value="" style="shape=tableRow;horizontal=0;startSize=0;swimlaneHead=0;swimlaneBody=0;strokeColor=inherit;top=0;left=0;bottom=0;right=0;collapsible=0;dropTarget=0;fillColor=none;points=[[0,0.5],[1,0.5]];portConstraint=eastwest;" vertex="1" parent="Fle0Xo0IbeSv7SWmubEE-185">
          <mxGeometry width="260" height="40" as="geometry" />
        </mxCell>
        <mxCell id="Fle0Xo0IbeSv7SWmubEE-187" value="ID" style="shape=partialRectangle;html=1;whiteSpace=wrap;connectable=0;strokeColor=inherit;overflow=hidden;fillColor=none;top=0;left=0;bottom=0;right=0;pointerEvents=1;" vertex="1" parent="Fle0Xo0IbeSv7SWmubEE-186">
          <mxGeometry width="40" height="40" as="geometry">
            <mxRectangle width="40" height="40" as="alternateBounds" />
          </mxGeometry>
        </mxCell>
        <mxCell id="Fle0Xo0IbeSv7SWmubEE-188" value="PROVEEDOR" style="shape=partialRectangle;html=1;whiteSpace=wrap;connectable=0;strokeColor=inherit;overflow=hidden;fillColor=none;top=0;left=0;bottom=0;right=0;pointerEvents=1;" vertex="1" parent="Fle0Xo0IbeSv7SWmubEE-186">
          <mxGeometry x="40" width="220" height="40" as="geometry">
            <mxRectangle width="220" height="40" as="alternateBounds" />
          </mxGeometry>
        </mxCell>
        <mxCell id="Fle0Xo0IbeSv7SWmubEE-189" value="" style="shape=tableRow;horizontal=0;startSize=0;swimlaneHead=0;swimlaneBody=0;strokeColor=inherit;top=0;left=0;bottom=0;right=0;collapsible=0;dropTarget=0;fillColor=none;points=[[0,0.5],[1,0.5]];portConstraint=eastwest;" vertex="1" parent="Fle0Xo0IbeSv7SWmubEE-185">
          <mxGeometry y="40" width="260" height="40" as="geometry" />
        </mxCell>
        <mxCell id="Fle0Xo0IbeSv7SWmubEE-190" value="1" style="shape=partialRectangle;html=1;whiteSpace=wrap;connectable=0;strokeColor=inherit;overflow=hidden;fillColor=none;top=0;left=0;bottom=0;right=0;pointerEvents=1;" vertex="1" parent="Fle0Xo0IbeSv7SWmubEE-189">
          <mxGeometry width="40" height="40" as="geometry">
            <mxRectangle width="40" height="40" as="alternateBounds" />
          </mxGeometry>
        </mxCell>
        <mxCell id="Fle0Xo0IbeSv7SWmubEE-191" value="NOMBRE =&amp;nbsp; kevin luna&amp;nbsp;" style="shape=partialRectangle;html=1;whiteSpace=wrap;connectable=0;strokeColor=inherit;overflow=hidden;fillColor=none;top=0;left=0;bottom=0;right=0;pointerEvents=1;" vertex="1" parent="Fle0Xo0IbeSv7SWmubEE-189">
          <mxGeometry x="40" width="220" height="40" as="geometry">
            <mxRectangle width="220" height="40" as="alternateBounds" />
          </mxGeometry>
        </mxCell>
        <mxCell id="Fle0Xo0IbeSv7SWmubEE-192" value="" style="shape=tableRow;horizontal=0;startSize=0;swimlaneHead=0;swimlaneBody=0;strokeColor=inherit;top=0;left=0;bottom=0;right=0;collapsible=0;dropTarget=0;fillColor=none;points=[[0,0.5],[1,0.5]];portConstraint=eastwest;" vertex="1" parent="Fle0Xo0IbeSv7SWmubEE-185">
          <mxGeometry y="80" width="260" height="40" as="geometry" />
        </mxCell>
        <mxCell id="Fle0Xo0IbeSv7SWmubEE-193" value="2" style="shape=partialRectangle;html=1;whiteSpace=wrap;connectable=0;strokeColor=inherit;overflow=hidden;fillColor=none;top=0;left=0;bottom=0;right=0;pointerEvents=1;" vertex="1" parent="Fle0Xo0IbeSv7SWmubEE-192">
          <mxGeometry width="40" height="40" as="geometry">
            <mxRectangle width="40" height="40" as="alternateBounds" />
          </mxGeometry>
        </mxCell>
        <mxCell id="Fle0Xo0IbeSv7SWmubEE-194" value="DIRECCION = cerete" style="shape=partialRectangle;html=1;whiteSpace=wrap;connectable=0;strokeColor=inherit;overflow=hidden;fillColor=none;top=0;left=0;bottom=0;right=0;pointerEvents=1;" vertex="1" parent="Fle0Xo0IbeSv7SWmubEE-192">
          <mxGeometry x="40" width="220" height="40" as="geometry">
            <mxRectangle width="220" height="40" as="alternateBounds" />
          </mxGeometry>
        </mxCell>
        <mxCell id="Fle0Xo0IbeSv7SWmubEE-195" value="" style="shape=tableRow;horizontal=0;startSize=0;swimlaneHead=0;swimlaneBody=0;strokeColor=inherit;top=0;left=0;bottom=0;right=0;collapsible=0;dropTarget=0;fillColor=none;points=[[0,0.5],[1,0.5]];portConstraint=eastwest;" vertex="1" parent="Fle0Xo0IbeSv7SWmubEE-185">
          <mxGeometry y="120" width="260" height="40" as="geometry" />
        </mxCell>
        <mxCell id="Fle0Xo0IbeSv7SWmubEE-196" value="3" style="shape=partialRectangle;html=1;whiteSpace=wrap;connectable=0;strokeColor=inherit;overflow=hidden;fillColor=none;top=0;left=0;bottom=0;right=0;pointerEvents=1;" vertex="1" parent="Fle0Xo0IbeSv7SWmubEE-195">
          <mxGeometry width="40" height="40" as="geometry">
            <mxRectangle width="40" height="40" as="alternateBounds" />
          </mxGeometry>
        </mxCell>
        <mxCell id="Fle0Xo0IbeSv7SWmubEE-197" value="CORREO ELECTRICO = kevinl@gmail.com&amp;nbsp;" style="shape=partialRectangle;html=1;whiteSpace=wrap;connectable=0;strokeColor=inherit;overflow=hidden;fillColor=none;top=0;left=0;bottom=0;right=0;pointerEvents=1;" vertex="1" parent="Fle0Xo0IbeSv7SWmubEE-195">
          <mxGeometry x="40" width="220" height="40" as="geometry">
            <mxRectangle width="220" height="40" as="alternateBounds" />
          </mxGeometry>
        </mxCell>
        <mxCell id="Fle0Xo0IbeSv7SWmubEE-215" value="" style="edgeStyle=entityRelationEdgeStyle;fontSize=12;html=1;endArrow=ERoneToMany;rounded=0;exitX=1;exitY=0.5;exitDx=0;exitDy=0;" edge="1" parent="1" source="Fle0Xo0IbeSv7SWmubEE-121" target="Fle0Xo0IbeSv7SWmubEE-175">
          <mxGeometry width="100" height="100" relative="1" as="geometry">
            <mxPoint x="-200" y="-150" as="sourcePoint" />
            <mxPoint x="20" y="420" as="targetPoint" />
            <Array as="points">
              <mxPoint x="-100" y="-110" />
            </Array>
          </mxGeometry>
        </mxCell>
        <mxCell id="Fle0Xo0IbeSv7SWmubEE-117" value="" style="shape=table;startSize=0;container=1;collapsible=0;childLayout=tableLayout;" vertex="1" parent="1">
          <mxGeometry x="-430" y="-200" width="210" height="155" as="geometry" />
        </mxCell>
        <mxCell id="Fle0Xo0IbeSv7SWmubEE-118" value="" style="shape=tableRow;horizontal=0;startSize=0;swimlaneHead=0;swimlaneBody=0;strokeColor=inherit;top=0;left=0;bottom=0;right=0;collapsible=0;dropTarget=0;fillColor=none;points=[[0,0.5],[1,0.5]];portConstraint=eastwest;" vertex="1" parent="Fle0Xo0IbeSv7SWmubEE-117">
          <mxGeometry width="210" height="20" as="geometry" />
        </mxCell>
        <mxCell id="Fle0Xo0IbeSv7SWmubEE-119" value="ID&amp;nbsp;" style="shape=partialRectangle;html=1;whiteSpace=wrap;connectable=0;strokeColor=inherit;overflow=hidden;fillColor=none;top=0;left=0;bottom=0;right=0;pointerEvents=1;" vertex="1" parent="Fle0Xo0IbeSv7SWmubEE-118">
          <mxGeometry width="30" height="20" as="geometry">
            <mxRectangle width="30" height="20" as="alternateBounds" />
          </mxGeometry>
        </mxCell>
        <mxCell id="Fle0Xo0IbeSv7SWmubEE-120" value="CLIENTE" style="shape=partialRectangle;html=1;whiteSpace=wrap;connectable=0;strokeColor=inherit;overflow=hidden;fillColor=none;top=0;left=0;bottom=0;right=0;pointerEvents=1;" vertex="1" parent="Fle0Xo0IbeSv7SWmubEE-118">
          <mxGeometry x="30" width="180" height="20" as="geometry">
            <mxRectangle width="180" height="20" as="alternateBounds" />
          </mxGeometry>
        </mxCell>
        <mxCell id="Fle0Xo0IbeSv7SWmubEE-121" value="" style="shape=tableRow;horizontal=0;startSize=0;swimlaneHead=0;swimlaneBody=0;strokeColor=inherit;top=0;left=0;bottom=0;right=0;collapsible=0;dropTarget=0;fillColor=none;points=[[0,0.5],[1,0.5]];portConstraint=eastwest;" vertex="1" parent="Fle0Xo0IbeSv7SWmubEE-117">
          <mxGeometry y="20" width="210" height="45" as="geometry" />
        </mxCell>
        <mxCell id="Fle0Xo0IbeSv7SWmubEE-122" value="1" style="shape=partialRectangle;html=1;whiteSpace=wrap;connectable=0;strokeColor=inherit;overflow=hidden;fillColor=none;top=0;left=0;bottom=0;right=0;pointerEvents=1;" vertex="1" parent="Fle0Xo0IbeSv7SWmubEE-121">
          <mxGeometry width="30" height="45" as="geometry">
            <mxRectangle width="30" height="45" as="alternateBounds" />
          </mxGeometry>
        </mxCell>
        <mxCell id="Fle0Xo0IbeSv7SWmubEE-123" value="NOMBRE = David Perez" style="shape=partialRectangle;html=1;whiteSpace=wrap;connectable=0;strokeColor=inherit;overflow=hidden;fillColor=none;top=0;left=0;bottom=0;right=0;pointerEvents=1;" vertex="1" parent="Fle0Xo0IbeSv7SWmubEE-121">
          <mxGeometry x="30" width="180" height="45" as="geometry">
            <mxRectangle width="180" height="45" as="alternateBounds" />
          </mxGeometry>
        </mxCell>
        <mxCell id="Fle0Xo0IbeSv7SWmubEE-124" value="" style="shape=tableRow;horizontal=0;startSize=0;swimlaneHead=0;swimlaneBody=0;strokeColor=inherit;top=0;left=0;bottom=0;right=0;collapsible=0;dropTarget=0;fillColor=none;points=[[0,0.5],[1,0.5]];portConstraint=eastwest;" vertex="1" parent="Fle0Xo0IbeSv7SWmubEE-117">
          <mxGeometry y="65" width="210" height="45" as="geometry" />
        </mxCell>
        <mxCell id="Fle0Xo0IbeSv7SWmubEE-125" value="2" style="shape=partialRectangle;html=1;whiteSpace=wrap;connectable=0;strokeColor=inherit;overflow=hidden;fillColor=none;top=0;left=0;bottom=0;right=0;pointerEvents=1;" vertex="1" parent="Fle0Xo0IbeSv7SWmubEE-124">
          <mxGeometry width="30" height="45" as="geometry">
            <mxRectangle width="30" height="45" as="alternateBounds" />
          </mxGeometry>
        </mxCell>
        <mxCell id="Fle0Xo0IbeSv7SWmubEE-126" value="DIERECCION = cota" style="shape=partialRectangle;html=1;whiteSpace=wrap;connectable=0;strokeColor=inherit;overflow=hidden;fillColor=none;top=0;left=0;bottom=0;right=0;pointerEvents=1;" vertex="1" parent="Fle0Xo0IbeSv7SWmubEE-124">
          <mxGeometry x="30" width="180" height="45" as="geometry">
            <mxRectangle width="180" height="45" as="alternateBounds" />
          </mxGeometry>
        </mxCell>
        <mxCell id="Fle0Xo0IbeSv7SWmubEE-127" value="" style="shape=tableRow;horizontal=0;startSize=0;swimlaneHead=0;swimlaneBody=0;strokeColor=inherit;top=0;left=0;bottom=0;right=0;collapsible=0;dropTarget=0;fillColor=none;points=[[0,0.5],[1,0.5]];portConstraint=eastwest;" vertex="1" parent="Fle0Xo0IbeSv7SWmubEE-117">
          <mxGeometry y="110" width="210" height="45" as="geometry" />
        </mxCell>
        <mxCell id="Fle0Xo0IbeSv7SWmubEE-128" value="3" style="shape=partialRectangle;html=1;whiteSpace=wrap;connectable=0;strokeColor=inherit;overflow=hidden;fillColor=none;top=0;left=0;bottom=0;right=0;pointerEvents=1;" vertex="1" parent="Fle0Xo0IbeSv7SWmubEE-127">
          <mxGeometry width="30" height="45" as="geometry">
            <mxRectangle width="30" height="45" as="alternateBounds" />
          </mxGeometry>
        </mxCell>
        <mxCell id="Fle0Xo0IbeSv7SWmubEE-129" value="CORREO = david@gmail.es" style="shape=partialRectangle;html=1;whiteSpace=wrap;connectable=0;strokeColor=inherit;overflow=hidden;fillColor=none;top=0;left=0;bottom=0;right=0;pointerEvents=1;" vertex="1" parent="Fle0Xo0IbeSv7SWmubEE-127">
          <mxGeometry x="30" width="180" height="45" as="geometry">
            <mxRectangle width="180" height="45" as="alternateBounds" />
          </mxGeometry>
        </mxCell>
        <mxCell id="Fle0Xo0IbeSv7SWmubEE-221" value="" style="edgeStyle=entityRelationEdgeStyle;fontSize=12;html=1;endArrow=ERoneToMany;rounded=0;entryX=0;entryY=0.5;entryDx=0;entryDy=0;" edge="1" parent="1" source="Fle0Xo0IbeSv7SWmubEE-182" target="Fle0Xo0IbeSv7SWmubEE-143">
          <mxGeometry width="100" height="100" relative="1" as="geometry">
            <mxPoint x="300" y="190" as="sourcePoint" />
            <mxPoint x="400" y="90" as="targetPoint" />
            <Array as="points">
              <mxPoint x="80" y="-100" />
            </Array>
          </mxGeometry>
        </mxCell>
        <mxCell id="Fle0Xo0IbeSv7SWmubEE-232" value="" style="edgeStyle=entityRelationEdgeStyle;fontSize=12;html=1;endArrow=ERoneToMany;rounded=0;entryX=1;entryY=0.5;entryDx=0;entryDy=0;exitX=1;exitY=0.5;exitDx=0;exitDy=0;" edge="1" parent="1" source="Fle0Xo0IbeSv7SWmubEE-156" target="Fle0Xo0IbeSv7SWmubEE-203">
          <mxGeometry width="100" height="100" relative="1" as="geometry">
            <mxPoint x="900" y="325" as="sourcePoint" />
            <mxPoint x="840" y="-210" as="targetPoint" />
          </mxGeometry>
        </mxCell>
        <mxCell id="Fle0Xo0IbeSv7SWmubEE-236" value="" style="edgeStyle=entityRelationEdgeStyle;fontSize=12;html=1;endArrow=ERoneToMany;rounded=0;exitX=1;exitY=0.5;exitDx=0;exitDy=0;entryX=0;entryY=0.5;entryDx=0;entryDy=0;" edge="1" parent="1" source="Fle0Xo0IbeSv7SWmubEE-121" target="Fle0Xo0IbeSv7SWmubEE-153">
          <mxGeometry width="100" height="100" relative="1" as="geometry">
            <mxPoint x="300" y="190" as="sourcePoint" />
            <mxPoint x="10" y="30" as="targetPoint" />
          </mxGeometry>
        </mxCell>
      </root>
    </mxGraphModel>
  </diagram>
</mxfile>
